<svg width="33" height="33" viewBox="0 0 33 33" fill="none" xmlns="http://www.w3.org/2000/svg">
<circle cx="16.5" cy="16.1543" r="16" fill="#5F22D9"/>
<g clip-path="url(#clip0_2304_1063)">
<path d="M16.4945 24.1541C14.1877 22.8613 11.8909 21.5845 9.60712 20.2853C9.45575 20.1989 9.31754 19.9461 9.31754 19.7701C9.2978 17.3349 9.2978 14.8965 9.31754 12.4613C9.31754 12.2757 9.47549 12.0197 9.64003 11.9173C10.387 11.4597 11.1603 11.0469 11.9632 10.5957C12.3943 11.2837 12.8057 11.9365 13.2433 12.6341C12.8451 12.8709 12.447 13.0757 12.0883 13.3317C11.9468 13.4309 11.8086 13.6421 11.8053 13.8021C11.7856 15.3413 11.7856 16.8837 11.8053 18.4229C11.8086 18.5797 11.9468 18.8005 12.0883 18.8837C13.4572 19.6837 14.836 20.4677 16.228 21.2325C16.3662 21.3093 16.6228 21.2933 16.7709 21.2197C17.202 21.0085 17.6068 20.7461 18.0938 20.4645C18.5249 21.1429 18.9526 21.8149 19.4035 22.5221C18.413 23.0757 17.4521 23.6165 16.4945 24.1541Z" fill="white"/>
<path d="M23.3168 11.8984C23.3069 11.892 23.2937 11.8856 23.2806 11.8792L16.9065 8.28243C16.5972 8.10323 16.3866 8.11923 16.1036 8.29843C15.6067 8.61203 15.0835 8.88723 14.5701 9.17843C14.0798 9.45683 13.5895 9.73843 13.0762 10.0296C15.5573 14.0232 18.0023 17.9624 20.4637 21.9272C21.4838 21.3704 22.4743 20.8392 23.4451 20.276C23.5767 20.1992 23.6524 19.9368 23.6524 19.7576C23.6754 17.3608 23.6754 14.964 23.6985 12.564C23.7051 12.2408 23.5932 12.0616 23.3168 11.8984ZM18.1965 14.4968C17.489 13.3736 16.7782 12.2536 16.074 11.1336L16.0773 11.1304C16.074 11.1272 16.074 11.124 16.0707 11.124C16.1069 11.0856 16.1431 11.0472 16.1793 11.0088C16.1826 11.0088 16.1892 11.012 16.1924 11.012C16.3998 10.8392 16.6038 10.8808 16.8506 11.028C18.0451 11.7256 19.2528 12.3976 20.444 13.0952C20.5131 13.1304 20.5822 13.1656 20.648 13.2008C20.7336 13.2456 20.7369 13.364 20.6513 13.4152L18.5946 14.5928C18.4597 14.6696 18.2787 14.628 18.1965 14.4968ZM21.0495 18.8072C21.0495 18.8104 21.0495 18.8168 21.0462 18.82C20.9935 18.8328 20.9442 18.8456 20.8915 18.8584C20.8915 18.8552 20.8882 18.852 20.8882 18.852C20.8849 18.852 20.8849 18.852 20.8817 18.852C20.1972 17.7192 19.5127 16.5864 18.825 15.4504C18.7427 15.316 18.7888 15.1432 18.927 15.06L20.9606 13.844C21.0462 13.7928 21.1515 13.8504 21.1515 13.9464C21.1515 14.0232 21.1515 14.0968 21.1515 14.1736C21.2272 15.524 21.27 16.8808 21.3424 18.2312C21.3588 18.516 21.3062 18.7112 21.0495 18.8072Z" fill="white"/>
</g>
<defs>
<clipPath id="clip0_2304_1063">
<rect width="14.4" height="16" fill="white" transform="translate(9.30078 8.1543)"/>
</clipPath>
</defs>
</svg>
