<svg width="33" height="33" viewBox="0 0 33 33" fill="none" xmlns="http://www.w3.org/2000/svg">
<path d="M0.5 16.1543C0.5 24.9909 7.66344 32.1543 16.5 32.1543C25.3366 32.1543 32.5 24.9909 32.5 16.1543C32.5 7.31774 25.3366 0.154297 16.5 0.154297C7.66344 0.154297 0.5 7.31774 0.5 16.1543Z" fill="#1877F2"/>
<path d="M24.5 16.1543C24.5 11.7543 20.9 8.1543 16.5 8.1543C12.1 8.1543 8.5 11.7543 8.5 16.1543C8.5 20.1543 11.4 23.4543 15.2 24.0543V18.4543H13.2V16.1543H15.2V14.3543C15.2 12.3543 16.4 11.2543 18.2 11.2543C19.1 11.2543 20 11.4543 20 11.4543V13.4543H19C18 13.4543 17.7 14.0543 17.7 14.6543V16.1543H19.9L19.5 18.4543H17.6V24.1543C21.6 23.5543 24.5 20.1543 24.5 16.1543Z" fill="white"/>
</svg>
