<svg width="33" height="33" viewBox="0 0 33 33" fill="none" xmlns="http://www.w3.org/2000/svg">
<path d="M0.5 16.1543C0.5 24.9909 7.66344 32.1543 16.5 32.1543C25.3366 32.1543 32.5 24.9909 32.5 16.1543C32.5 7.31774 25.3366 0.154297 16.5 0.154297C7.66344 0.154297 0.5 7.31774 0.5 16.1543Z" fill="#F00073"/>
<path d="M16.4992 9.35449C18.6992 9.35449 18.9992 9.35449 19.8992 9.35449C20.6992 9.35449 21.0992 9.55449 21.3992 9.65449C21.7992 9.85449 22.0992 9.95449 22.3992 10.2545C22.6992 10.5545 22.8992 10.8545 22.9992 11.2545C23.0992 11.5545 23.1992 11.9545 23.2992 12.7545C23.2992 13.6545 23.2992 13.8545 23.2992 16.1545C23.2992 18.4545 23.2992 18.6545 23.2992 19.5545C23.2992 20.3545 23.0992 20.7545 22.9992 21.0545C22.7992 21.4545 22.6992 21.7545 22.3992 22.0545C22.0992 22.3545 21.7992 22.5545 21.3992 22.6545C21.0992 22.7545 20.6992 22.8545 19.8992 22.9545C18.9992 22.9545 18.7992 22.9545 16.4992 22.9545C14.1992 22.9545 13.9992 22.9545 13.0992 22.9545C12.2992 22.9545 11.8992 22.7545 11.5992 22.6545C11.1992 22.4545 10.8992 22.3545 10.5992 22.0545C10.2992 21.7545 10.0992 21.4545 9.99922 21.0545C9.89922 20.7545 9.79922 20.3545 9.69922 19.5545C9.69922 18.6545 9.69922 18.4545 9.69922 16.1545C9.69922 13.8545 9.69922 13.6545 9.69922 12.7545C9.69922 11.9545 9.89922 11.5545 9.99922 11.2545C10.1992 10.8545 10.2992 10.5545 10.5992 10.2545C10.8992 9.95449 11.1992 9.75449 11.5992 9.65449C11.8992 9.55449 12.2992 9.45449 13.0992 9.35449C13.9992 9.35449 14.2992 9.35449 16.4992 9.35449ZM16.4992 7.85449C14.1992 7.85449 13.9992 7.85449 13.0992 7.85449C12.1992 7.85449 11.5992 8.05449 11.0992 8.25449C10.5992 8.45449 10.0992 8.75449 9.59922 9.25449C9.09922 9.75449 8.89922 10.1545 8.59922 10.7545C8.39922 11.2545 8.29922 11.8545 8.19922 12.7545C8.19922 13.6545 8.19922 13.9545 8.19922 16.1545C8.19922 18.4545 8.19922 18.6545 8.19922 19.5545C8.19922 20.4545 8.39922 21.0545 8.59922 21.5545C8.79922 22.0545 9.09922 22.5545 9.59922 23.0545C10.0992 23.5545 10.4992 23.7545 11.0992 24.0545C11.5992 24.2545 12.1992 24.3545 13.0992 24.4545C13.9992 24.4545 14.2992 24.4545 16.4992 24.4545C18.6992 24.4545 18.9992 24.4545 19.8992 24.4545C20.7992 24.4545 21.3992 24.2545 21.8992 24.0545C22.3992 23.8545 22.8992 23.5545 23.3992 23.0545C23.8992 22.5545 24.0992 22.1545 24.3992 21.5545C24.5992 21.0545 24.6992 20.4545 24.7992 19.5545C24.7992 18.6545 24.7992 18.3545 24.7992 16.1545C24.7992 13.9545 24.7992 13.6545 24.7992 12.7545C24.7992 11.8545 24.5992 11.2545 24.3992 10.7545C24.1992 10.2545 23.8992 9.75449 23.3992 9.25449C22.8992 8.75449 22.4992 8.55449 21.8992 8.25449C21.3992 8.05449 20.7992 7.95449 19.8992 7.85449C18.9992 7.85449 18.7992 7.85449 16.4992 7.85449Z" fill="white"/>
<path d="M16.4992 11.8545C14.0992 11.8545 12.1992 13.7545 12.1992 16.1545C12.1992 18.5545 14.0992 20.4545 16.4992 20.4545C18.8992 20.4545 20.7992 18.5545 20.7992 16.1545C20.7992 13.7545 18.8992 11.8545 16.4992 11.8545ZM16.4992 18.9545C14.9992 18.9545 13.6992 17.7545 13.6992 16.1545C13.6992 14.6545 14.8992 13.3545 16.4992 13.3545C17.9992 13.3545 19.2992 14.5545 19.2992 16.1545C19.2992 17.6545 17.9992 18.9545 16.4992 18.9545Z" fill="white"/>
<path d="M20.8992 12.7545C21.4515 12.7545 21.8992 12.3068 21.8992 11.7545C21.8992 11.2022 21.4515 10.7545 20.8992 10.7545C20.3469 10.7545 19.8992 11.2022 19.8992 11.7545C19.8992 12.3068 20.3469 12.7545 20.8992 12.7545Z" fill="white"/>
</svg>
