<svg width="33" height="33" viewBox="0 0 33 33" fill="none" xmlns="http://www.w3.org/2000/svg">
<path d="M0.5 16.1543C0.5 24.9909 7.66344 32.1543 16.5 32.1543C25.3366 32.1543 32.5 24.9909 32.5 16.1543C32.5 7.31774 25.3366 0.154297 16.5 0.154297C7.66344 0.154297 0.5 7.31774 0.5 16.1543Z" fill="#2867B2"/>
<path d="M12.1 24.1543H8.7V13.4543H12.1V24.1543ZM10.4 11.9543C9.3 11.9543 8.5 11.1543 8.5 10.0543C8.5 8.9543 9.4 8.1543 10.4 8.1543C11.5 8.1543 12.3 8.9543 12.3 10.0543C12.3 11.1543 11.5 11.9543 10.4 11.9543ZM24.5 24.1543H21.1V18.3543C21.1 16.6543 20.4 16.1543 19.4 16.1543C18.4 16.1543 17.4 16.9543 17.4 18.4543V24.1543H14V13.4543H17.2V14.9543C17.5 14.2543 18.7 13.1543 20.4 13.1543C22.3 13.1543 24.3 14.2543 24.3 17.5543V24.1543H24.5Z" fill="white"/>
</svg>
