<svg width="33" height="33" viewBox="0 0 33 33" fill="none" xmlns="http://www.w3.org/2000/svg">
<g clip-path="url(#clip0_2304_1064)">
<path d="M16.5 32.1543C25.3366 32.1543 32.5 24.9909 32.5 16.1543C32.5 7.31774 25.3366 0.154297 16.5 0.154297C7.66344 0.154297 0.5 7.31774 0.5 16.1543C0.5 24.9909 7.66344 32.1543 16.5 32.1543Z" fill="#E54231"/>
<path d="M23.3938 12.1043C21.1146 13.4487 18.8355 14.7932 16.5243 16.1571C18.7049 17.7001 20.8674 19.2307 23.0299 20.7598C21.6382 22.9154 18.566 24.6348 15.1771 24.0571C11.223 23.3821 8.52018 19.9946 8.4924 16.2196C8.46463 12.4098 11.1202 9.08345 14.8841 8.31123C18.7174 7.52512 22.023 9.61401 23.3938 12.1043Z" fill="white"/>
</g>
<defs>
<clipPath id="clip0_2304_1064">
<rect width="32" height="32" fill="white" transform="translate(0.5 0.154297)"/>
</clipPath>
</defs>
</svg>
