<svg width="33" height="33" viewBox="0 0 33 33" fill="none" xmlns="http://www.w3.org/2000/svg">
<path d="M0.5 16.1543C0.5 24.9909 7.66344 32.1543 16.5 32.1543C25.3366 32.1543 32.5 24.9909 32.5 16.1543C32.5 7.31774 25.3366 0.154297 16.5 0.154297C7.66344 0.154297 0.5 7.31774 0.5 16.1543Z" fill="#25D366"/>
<path fill-rule="evenodd" clip-rule="evenodd" d="M22.1 10.4543C20.6 8.9543 18.6 8.1543 16.5 8.1543C12.1 8.1543 8.5 11.7543 8.5 16.1543C8.5 17.5543 8.90001 18.9543 9.60001 20.1543L8.5 24.1543L12.7 23.0543C13.9 23.6543 15.2 24.0543 16.5 24.0543C20.9 24.0543 24.5 20.4543 24.5 16.0543C24.5 13.9543 23.6 11.9543 22.1 10.4543ZM16.5 22.7543C15.3 22.7543 14.1 22.4543 13.1 21.8543L12.9 21.7543L10.4 22.4543L11.1 20.0543L10.9 19.7543C10.2 18.6543 9.89999 17.4543 9.89999 16.2543C9.89999 12.6543 12.9 9.6543 16.5 9.6543C18.3 9.6543 19.9 10.3543 21.2 11.5543C22.5 12.8543 23.1 14.4543 23.1 16.2543C23.1 19.7543 20.2 22.7543 16.5 22.7543ZM20.1 17.7543C19.9 17.6543 18.9 17.1543 18.7 17.1543C18.5 17.0543 18.4 17.0543 18.3 17.2543C18.2 17.4543 17.8 17.8543 17.7 18.0543C17.6 18.1543 17.5 18.1543 17.3 18.1543C17.1 18.0543 16.5 17.8543 15.7 17.1543C15.1 16.6543 14.7 15.9543 14.6 15.7543C14.5 15.5543 14.6 15.4543 14.7 15.3543C14.8 15.2543 14.9 15.1543 15 15.0543C15.1 14.9543 15.1 14.8543 15.2 14.7543C15.3 14.6543 15.2 14.5543 15.2 14.4543C15.2 14.3543 14.8 13.3543 14.6 12.9543C14.5 12.6543 14.3 12.6543 14.2 12.6543C14.1 12.6543 14 12.6543 13.8 12.6543C13.7 12.6543 13.5 12.6543 13.3 12.8543C13.1 13.0543 12.6 13.5543 12.6 14.5543C12.6 15.5543 13.3 16.4543 13.4 16.6543C13.5 16.7543 14.8 18.8543 16.8 19.6543C18.5 20.3543 18.8 20.1543 19.2 20.1543C19.6 20.1543 20.4 19.6543 20.5 19.2543C20.7 18.7543 20.7 18.3543 20.6 18.3543C20.5 17.8543 20.3 17.8543 20.1 17.7543Z" fill="white"/>
</svg>
